<?xml version="1.0" standalone="no"?>
<!DOCTYPE svg PUBLIC "-//W3C//DTD SVG 20010904//EN"
 "http://www.w3.org/TR/2001/REC-SVG-20010904/DTD/svg10.dtd">
<svg version="1.0" xmlns="http://www.w3.org/2000/svg"
 width="128.000000pt" height="128.000000pt" viewBox="0 0 128.000000 128.000000"
 preserveAspectRatio="xMidYMid meet">
<metadata>
Created by potrace 1.10, written by Peter Selinger 2001-2011
</metadata>
<g transform="translate(0.000000,128.000000) scale(0.100000,-0.100000)"
fill="#ff7300" stroke="none">
<path d="M678 787 c33 -35 38 -93 13 -134 -29 -46 -58 -50 -138 -19 -38 14
-73 26 -78 26 -16 0 -173 66 -188 78 -7 6 -28 13 -47 16 -19 2 -62 13 -95 25
-33 11 -66 21 -72 21 -10 0 -13 -45 -13 -190 l0 -190 520 0 c286 0 520 3 520
6 0 10 -31 37 -36 31 -3 -3 -33 5 -67 18 -34 12 -125 44 -202 70 -77 26 -141
48 -143 49 -1 2 14 20 33 40 26 28 35 46 35 71 0 44 -16 78 -43 94 -21 13 -21
13 1 -12z m-515 -42 c20 -8 51 -15 68 -15 18 0 37 -6 43 -14 6 -8 76 -38 156
-66 80 -28 163 -58 185 -67 22 -8 102 -37 177 -63 75 -27 145 -53 155 -59 15
-9 14 -10 -13 -11 -32 0 -831 263 -847 279 -13 13 0 31 22 31 10 0 35 -7 54
-15z m124 -105 c81 -28 222 -76 313 -106 91 -31 169 -59 173 -63 4 -5 -32 -11
-82 -15 -103 -8 -539 -7 -569 1 -19 5 -21 14 -24 109 -2 58 -1 109 0 114 6 18
38 11 189 -40z"/>
<path d="M1052 778 c-2 -36 -3 -37 -28 -27 -15 5 -29 8 -31 5 -2 -2 10 -9 28
-15 18 -6 34 -9 36 -7 3 2 3 21 0 42 l-4 39 -1 -37z"/>
<path d="M350 775 c40 -48 43 -51 32 -30 -6 11 -21 29 -34 40 -22 19 -22 19 2
-10z"/>
<path d="M541 728 c2 -32 2 -32 6 -4 4 25 8 28 38 24 19 -2 31 0 29 4 -3 4
-21 8 -40 8 -32 0 -34 -2 -33 -32z"/>
<path d="M903 740 c-39 -23 -51 -44 -58 -101 l-5 -44 14 50 c10 35 25 60 52
83 43 37 42 40 -3 12z"/>
<path d="M772 620 c0 -19 2 -27 5 -17 2 9 2 25 0 35 -3 9 -5 1 -5 -18z"/>
<path d="M1074 565 c0 -49 1 -71 3 -48 2 23 2 64 0 90 -2 26 -3 8 -3 -42z"/>
<path d="M1198 500 c18 -21 15 -48 -9 -60 -23 -13 -49 2 -49 28 0 8 -3 13 -6
9 -9 -9 5 -45 21 -51 9 -3 26 -1 40 4 30 11 34 51 8 71 -15 11 -16 11 -5 -1z"/>
</g>
</svg>
