<?xml version="1.0" standalone="no"?>
<!DOCTYPE svg PUBLIC "-//W3C//DTD SVG 20010904//EN"
 "http://www.w3.org/TR/2001/REC-SVG-20010904/DTD/svg10.dtd">
<svg version="1.0" xmlns="http://www.w3.org/2000/svg"
 width="300.000000pt" height="300.000000pt" viewBox="0 0 300.000000 300.000000"
 preserveAspectRatio="xMidYMid meet">
<metadata>
Created by potrace 1.10, written by Peter Selinger 2001-2011
</metadata>
<g transform="translate(0.000000,300.000000) scale(0.100000,-0.100000)"
fill="#ffffff" stroke="none">
<path d="M845 2376 c-18 -18 -23 -35 -24 -81 -2 -118 7 -122 234 -123 94 0
178 5 189 10 13 7 16 7 12 -1 -5 -8 4 -10 28 -7 20 3 36 0 36 -5 0 -6 5 -7 12
-3 6 4 117 8 247 8 l236 1 3 -60 c1 -33 3 -141 4 -240 0 -119 5 -183 12 -187
8 -5 7 -8 -2 -8 -12 0 -11 -38 3 -60 3 -5 0 -7 -8 -4 -20 7 -17 -26 3 -44 13
-12 13 -13 -2 -8 -18 5 -18 2 -3 -91 2 -13 -1 -23 -7 -23 -7 0 -6 -5 1 -14 8
-9 8 -16 2 -20 -14 -9 -9 -88 7 -105 11 -11 10 -17 -5 -34 -10 -11 -12 -17 -5
-13 13 8 17 -6 5 -18 -12 -11 -12 -39 -1 -59 8 -15 7 -18 -4 -12 -10 6 -10 5
-1 -5 9 -10 9 -18 1 -33 -9 -17 -8 -19 8 -13 16 6 16 5 3 -11 -17 -20 -18 -31
-5 -52 7 -10 6 -12 -3 -6 -16 9 -13 -63 3 -84 9 -12 8 -13 -3 -7 -24 15 -1
-57 26 -79 25 -21 90 -30 108 -15 6 5 17 5 25 0 9 -6 20 -4 29 3 12 9 13 9 7
0 -4 -7 -2 -13 3 -13 6 0 11 5 11 10 0 7 6 7 18 1 13 -7 23 -6 31 2 10 9 11 8
6 -5 -4 -11 -2 -18 4 -18 6 0 11 8 11 17 0 13 3 14 12 5 15 -15 58 -16 58 -1
0 6 5 7 13 2 18 -12 117 -12 117 -1 0 6 6 6 14 -2 17 -13 64 -11 85 5 11 7 13
7 8 -2 -5 -8 23 -11 108 -11 67 0 115 4 115 10 0 5 6 6 13 1 20 -12 81 -13 88
-1 5 8 11 9 21 1 8 -6 21 -7 33 -2 28 11 43 11 25 -1 -10 -6 -4 -9 20 -8 19 0
41 5 48 11 8 6 12 6 12 -2 0 -8 18 -11 55 -9 48 3 55 6 55 24 0 20 -2 20 -572
21 l-573 1 4 518 c2 286 0 579 -4 652 l-8 132 -493 0 -494 0 0 74 0 73 1070
-5 1070 -4 0 20 0 21 -827 2 c-456 0 -936 2 -1067 4 -235 2 -240 2 -261 -19z"/>
<path d="M2964 2311 c-12 -28 -6 -87 8 -73 5 5 8 29 6 53 -3 40 -5 42 -14 20z"/>
<path d="M2004 2201 c-2 -2 -4 -263 -4 -578 l0 -574 58 3 57 3 1 175 0 175
230 -2 229 -2 3 -71 3 -72 -158 4 -158 3 -3 -107 -3 -108 371 0 c365 0 370 0
370 20 0 19 -6 20 -75 19 -48 -1 -75 -6 -75 -13 0 -8 -2 -8 -8 0 -5 8 -78 12
-237 12 -319 0 -291 -2 -304 30 -13 30 -11 57 5 86 9 14 24 18 77 19 37 1 67
6 67 11 0 6 5 5 12 -2 13 -13 32 -17 25 -4 -3 4 10 7 29 7 19 0 34 -3 34 -7 0
-3 9 -4 21 -1 16 4 17 8 7 14 -10 7 -9 9 4 9 25 0 35 28 34 92 -1 39 -8 63
-20 77 -21 23 -69 36 -88 25 -16 -10 -82 -11 -125 -3 -22 5 -31 3 -26 -4 3 -6
1 -7 -6 -3 -20 13 -165 14 -180 2 -12 -9 -13 -8 -9 5 6 14 2 16 -20 10 -15 -4
-31 -16 -37 -27 -5 -10 -16 -19 -24 -19 -8 0 -16 -6 -19 -13 -2 -7 2 -10 12
-6 9 3 16 1 16 -5 0 -6 -4 -11 -10 -11 -6 0 -6 -9 -1 -23 6 -14 6 -30 0 -38
-12 -19 -12 -72 0 -64 6 3 6 -6 1 -25 -5 -18 -5 -41 0 -54 4 -12 4 -29 0 -36
-5 -8 -4 -23 2 -34 10 -20 10 -20 -8 -5 -10 9 -25 14 -33 11 -10 -3 -12 0 -7
13 3 10 1 25 -6 33 -9 11 -9 13 -1 9 17 -11 21 34 5 61 -13 20 -12 22 4 22 16
0 17 2 4 10 -8 5 -10 10 -4 10 6 0 11 7 11 15 0 8 -4 15 -9 15 -4 0 -8 5 -8
11 0 5 4 7 10 4 6 -4 7 2 1 18 -5 13 -5 30 -1 37 5 9 4 20 -2 27 -6 8 -6 13
-1 13 6 0 7 18 4 43 -4 23 -6 131 -5 239 2 137 -1 196 -9 191 -6 -4 -7 -1 -2
7 4 7 9 71 11 143 2 94 6 132 16 138 7 5 50 7 96 6 45 -1 82 0 82 3 0 3 33 3
74 0 41 -3 72 -1 69 4 -3 4 3 5 13 2 29 -9 150 -10 164 -1 9 5 11 4 6 -3 -6
-11 31 -9 71 3 7 2 15 0 18 -5 4 -6 11 -10 16 -10 6 0 7 4 4 10 -3 5 0 7 8 4
8 -3 85 -6 171 -7 150 -2 156 -1 156 18 0 20 -7 20 -496 20 -273 0 -498 -2
-500 -4z"/>
<path d="M918 2134 c-3 -3 -21 -7 -39 -9 -35 -5 -48 -18 -50 -50 -11 -140 -2
-155 86 -155 34 0 55 4 55 11 0 8 4 8 13 1 7 -6 30 -10 52 -10 22 0 42 -1 45
-1 3 -1 23 -4 45 -6 33 -4 62 -9 83 -14 1 -1 -2 -9 -7 -20 -6 -10 -8 -21 -4
-24 8 -9 6 -364 -3 -378 -4 -8 -3 -9 4 -5 7 4 12 2 12 -3 0 -6 -3 -11 -7 -11
-11 0 -10 -112 1 -129 6 -10 5 -12 -2 -7 -9 5 -9 0 -2 -19 13 -34 13 -44 -1
-25 -7 11 -9 5 -7 -25 2 -22 7 -43 13 -47 6 -5 5 -12 -3 -20 -15 -15 -16 -42
-1 -32 6 3 3 -6 -7 -22 -23 -36 -35 -48 -54 -53 -8 -2 -22 -6 -32 -8 -10 -3
-21 3 -27 16 -7 12 -19 21 -29 21 -14 0 -14 2 -3 9 20 13 6 41 -20 41 -15 0
-19 5 -15 15 3 8 2 14 -2 14 -4 -1 -11 0 -17 1 -26 7 -61 4 -67 -5 -5 -6 -8
-6 -8 2 0 17 -72 6 -87 -14 -7 -9 -10 -31 -7 -52 4 -27 2 -32 -5 -21 -9 13
-11 13 -11 -2 0 -10 7 -18 15 -18 8 0 15 -7 15 -16 0 -9 -5 -13 -12 -9 -7 4
-6 0 3 -7 18 -14 9 -58 -11 -58 -6 0 -8 5 -5 10 3 6 0 10 -7 11 -7 0 -4 4 7 9
13 6 15 9 5 9 -10 1 -16 13 -17 33 -1 17 -6 34 -10 37 -5 3 -9 13 -9 21 -4 43
-26 76 -44 65 -6 -3 -26 -1 -44 6 -29 10 -38 10 -52 -2 -11 -9 -15 -9 -10 -1
4 7 2 12 -8 12 -8 0 -20 -8 -25 -17 -6 -10 -11 -14 -11 -9 0 6 -7 1 -15 -10
-17 -22 -20 -65 -5 -80 16 -16 21 -54 7 -54 -7 0 -3 -7 7 -15 11 -8 14 -15 8
-15 -7 0 -12 -5 -12 -11 0 -5 5 -7 12 -3 6 4 8 3 5 -3 -8 -13 26 -80 50 -100
10 -8 13 -12 6 -9 -7 4 -9 -1 -6 -14 3 -11 9 -18 13 -15 8 5 24 -24 22 -37 -1
-5 4 -8 12 -8 8 0 18 -9 21 -20 3 -11 14 -20 22 -20 9 0 14 -3 10 -6 -7 -8 17
-34 32 -34 6 0 23 -13 38 -30 14 -16 36 -30 48 -30 13 0 28 -7 35 -15 7 -8 17
-12 22 -9 6 4 14 1 18 -5 4 -7 26 -13 48 -14 23 -1 42 -5 42 -9 0 -4 24 -6 53
-6 29 1 58 -2 65 -6 6 -3 14 -1 19 6 4 7 16 14 25 14 10 1 15 -2 12 -8 -7 -11
40 -1 79 17 15 8 25 10 22 5 -3 -4 17 3 45 16 27 13 50 29 50 35 0 6 9 8 21 4
13 -5 19 -3 15 3 -3 5 4 12 16 15 12 4 19 9 15 13 -8 8 12 36 22 30 3 -2 26
17 51 42 25 25 37 40 27 32 -15 -11 -17 -11 -11 4 3 9 10 16 14 16 4 0 10 9
13 21 3 12 10 18 16 14 6 -3 11 1 11 9 0 8 8 20 18 25 13 8 14 11 2 11 -12 0
-11 3 3 11 9 6 15 14 12 19 -3 5 -2 18 4 28 5 10 12 37 14 60 3 22 8 46 12 52
4 6 2 17 -5 25 -7 9 -8 15 0 20 6 4 7 13 1 23 -4 9 -7 31 -5 47 8 77 11 174 5
171 -4 -3 -7 4 -7 14 0 10 4 16 8 14 4 -3 9 1 9 8 2 23 -3 43 -12 49 -5 3 -5
19 0 37 6 20 6 30 0 27 -5 -4 -9 -2 -9 4 0 5 4 12 10 16 5 3 7 37 4 78 -6 83
-6 133 2 162 4 16 3 17 -5 5 -7 -9 -11 -10 -11 -3 0 6 4 14 8 17 9 5 8 53 -1
63 -11 11 -8 25 4 17 8 -5 10 7 6 40 -3 25 -9 50 -12 55 -3 5 -1 12 5 16 5 3
10 11 10 16 0 6 -4 8 -9 5 -4 -3 -7 14 -5 38 2 32 -1 48 -14 58 -23 20 -62 29
-62 15 0 -8 -3 -9 -8 -2 -8 12 -187 14 -198 2 -4 -3 -15 -2 -25 4 -12 6 -25 6
-36 0 -11 -6 -26 -5 -42 2 -19 9 -25 9 -29 -1 -3 -9 -9 -9 -24 -1 -16 8 -23 8
-29 -2 -6 -9 -9 -10 -9 -2 0 8 -9 9 -30 3 -18 -5 -30 -5 -30 1 0 14 -38 11
-43 -3 -4 -10 -6 -10 -6 0 -1 6 -6 12 -12 12 -5 0 -8 -4 -4 -9 3 -6 -7 -6 -27
0 -22 6 -34 5 -39 -2 -4 -8 -8 -7 -12 2 -4 12 -7 11 -16 -1 -10 -13 -11 -13
-11 0 0 13 -1 13 -10 0 -6 -10 -10 -11 -10 -2 0 12 -12 16 -22 6z m722 -527
c0 -311 -4 -515 -11 -553 -41 -228 -255 -413 -483 -417 -114 -3 -159 7 -251
52 -166 83 -278 242 -292 419 l-5 52 76 0 c76 0 76 0 77 -27 3 -59 7 -75 38
-137 38 -78 89 -131 161 -171 52 -28 62 -30 165 -30 101 0 115 2 168 29 76 37
133 96 171 176 l31 65 2 275 c2 151 3 349 4 440 l1 165 -56 3 -56 3 0 -425 c0
-424 0 -426 -23 -478 -38 -84 -112 -139 -209 -153 -127 -19 -263 81 -287 211
-5 23 -5 46 0 51 4 4 38 6 75 3 66 -5 67 -5 78 -40 12 -39 66 -80 103 -80 13
0 37 7 53 15 59 31 60 34 60 482 l1 408 -186 3 -185 2 -2 48 c-1 26 -2 56 -3
67 -1 11 0 23 2 28 2 4 179 7 394 7 l389 0 0 -493z m-175 293 c11 -5 15 -9 9
-9 -8 -1 -9 -12 -4 -36 4 -19 4 -35 0 -35 -5 0 -8 -27 -7 -60 0 -33 5 -60 11
-60 6 0 5 -5 -2 -12 -15 -15 -16 -42 0 -32 7 4 8 3 4 -5 -13 -20 -17 -61 -6
-61 5 0 10 -5 10 -11 0 -5 -4 -8 -8 -5 -5 3 -9 -1 -9 -9 0 -8 3 -12 7 -10 4 2
7 -2 7 -10 0 -8 -4 -12 -7 -10 -4 3 -6 -10 -4 -28 1 -17 3 -32 4 -32 7 0 5
-47 -2 -51 -5 -3 -4 -12 2 -19 8 -10 8 -15 -1 -20 -8 -6 -7 -10 2 -16 10 -6
11 -9 2 -9 -16 0 -17 -34 -1 -63 10 -20 10 -21 -6 -8 -9 8 -19 11 -23 7 -3 -3
-1 -6 5 -6 7 0 12 -7 12 -16 0 -8 4 -13 9 -9 11 6 7 -25 -7 -52 -5 -10 -8 -32
-5 -48 4 -27 2 -31 -22 -33 -15 -1 -24 2 -20 8 3 6 0 10 -7 10 -10 1 -9 4 2
13 16 12 15 57 0 57 -5 0 -2 12 5 28 9 16 11 28 5 30 -6 2 -10 8 -10 13 0 6 3
8 8 6 4 -3 7 6 7 19 0 13 -5 24 -11 24 -6 0 -11 7 -11 15 0 8 4 12 8 9 10 -6
7 112 -3 121 -8 9 3 46 12 40 5 -3 6 4 3 15 -3 11 -10 17 -17 13 -6 -4 -5 1 3
10 11 14 11 17 0 17 -11 0 -11 2 -2 8 9 6 10 17 4 40 -6 21 -6 34 1 38 6 4 5
10 -3 15 -10 6 -11 9 -1 9 6 0 12 11 12 25 0 14 -5 25 -10 25 -7 0 -7 6 0 19
14 27 13 74 -1 65 -8 -4 -8 -1 -1 12 6 11 11 21 11 24 14 56 13 54 46 40z
m-11 -801 c-10 -11 -12 -19 -6 -19 7 0 12 -7 12 -15 0 -9 -6 -12 -17 -8 -13 5
-15 2 -10 -11 4 -10 1 -19 -8 -22 -8 -4 -15 -14 -15 -24 0 -11 -4 -21 -9 -25
-6 -3 -8 -14 -6 -24 3 -15 -1 -19 -17 -16 -14 3 -18 0 -14 -11 3 -9 1 -12 -4
-9 -6 3 -10 1 -10 -4 0 -6 -6 -11 -13 -11 -7 0 -20 -9 -30 -20 -18 -21 -43
-28 -31 -8 4 7 3 8 -4 4 -6 -4 -9 -13 -6 -20 6 -17 -12 -31 -21 -16 -3 5 -11
10 -16 10 -6 0 -8 -4 -4 -9 3 -5 0 -13 -6 -17 -8 -4 -9 -3 -5 4 4 7 1 12 -8
12 -9 0 -16 -6 -16 -12 0 -9 -4 -8 -10 2 -5 8 -10 10 -10 4 0 -6 -14 -9 -32
-7 -27 3 -29 1 -13 -6 16 -8 17 -10 3 -10 -9 -1 -19 3 -23 9 -3 5 -12 7 -19 4
-8 -3 -17 0 -22 7 -5 8 -3 10 7 4 8 -5 11 -4 6 1 -12 12 -30 12 -39 -1 -5 -6
-8 -5 -8 3 0 9 -5 10 -19 2 -15 -7 -23 -6 -34 5 -8 8 -18 11 -22 7 -5 -4 -5 1
-2 10 4 12 -2 19 -21 26 -38 13 -86 61 -90 88 -2 18 1 22 13 18 9 -4 20 -15
26 -26 6 -11 13 -17 16 -15 2 3 13 -2 22 -11 10 -9 26 -23 37 -30 10 -7 13
-10 5 -6 -9 5 -12 3 -7 -5 4 -6 12 -9 17 -5 6 3 16 -2 24 -12 9 -14 25 -19 64
-19 28 0 51 -4 51 -8 0 -4 9 -3 19 3 25 13 41 13 21 0 -12 -8 -10 -10 8 -10
13 0 21 4 17 9 -3 5 0 13 6 17 7 4 9 3 6 -3 -4 -6 5 -10 22 -9 21 1 27 4 20
13 -8 8 -4 10 12 6 17 -5 20 -3 14 7 -5 9 -4 11 3 6 7 -4 12 -2 12 4 0 6 5 8
10 5 6 -3 10 1 10 9 0 10 6 13 16 9 12 -4 15 -2 12 8 -5 16 32 49 59 50 14 0
15 2 3 7 -17 8 -25 32 -11 32 5 0 12 -6 15 -12 4 -7 4 -3 2 8 -3 17 1 21 18
17 18 -4 18 -2 -4 11 -23 14 -16 22 14 17 5 -1 6 10 4 24 -6 27 15 47 39 38
11 -4 10 -9 -3 -24z"/>
<path d="M870 2030 l0 -60 190 0 191 0 -3 -434 -3 -434 -25 -27 c-38 -42 -82
-57 -131 -46 -48 11 -77 34 -96 79 -13 31 -16 32 -68 32 -64 0 -65 -3 -31 -75
44 -94 124 -146 222 -146 98 0 176 52 220 146 l24 50 0 428 0 427 75 0 75 0 0
-63 c0 -37 5 -69 13 -76 9 -11 9 -12 0 -7 -10 5 -13 -72 -13 -356 0 -286 -3
-373 -14 -409 -38 -123 -109 -208 -214 -257 -51 -24 -69 -27 -167 -27 -101 0
-115 3 -167 29 -117 58 -218 201 -218 310 0 25 -2 26 -56 26 l-57 0 7 -55 c17
-148 121 -293 267 -369 115 -61 247 -74 369 -37 176 54 321 219 350 397 6 32
10 274 10 536 l0 477 -375 1 -375 0 0 -60z m125 30 c-4 -6 12 -10 39 -10 27 0
46 5 46 11 0 8 6 7 17 -2 14 -12 16 -12 8 0 -6 11 -5 12 6 5 21 -13 250 -13
242 0 -5 7 -2 7 8 0 8 -7 52 -11 111 -10 111 2 110 3 110 -84 1 -30 5 -63 10
-74 7 -13 7 -16 -1 -12 -15 10 -14 -7 1 -22 9 -9 9 -12 0 -12 -7 0 -12 -15
-12 -36 0 -22 4 -33 11 -29 6 4 5 -3 -3 -14 -11 -18 -11 -23 2 -31 8 -5 10
-10 4 -10 -7 0 -10 -28 -9 -82 1 -46 -3 -88 -7 -94 -10 -13 -7 -36 5 -45 4 -3
9 -30 11 -59 4 -51 3 -53 -10 -30 l-13 25 1 -27 c2 -16 6 -28 10 -28 5 0 1
-11 -8 -25 -9 -14 -12 -25 -6 -25 6 0 13 6 15 13 3 6 3 -10 1 -38 -3 -36 -2
-46 6 -35 13 19 13 9 0 -25 -7 -18 -7 -33 0 -45 6 -12 7 -21 0 -25 -5 -3 -7
-12 -4 -19 3 -8 1 -17 -5 -21 -6 -3 -11 -11 -11 -16 0 -6 4 -7 10 -4 6 4 6 -4
0 -21 -6 -15 -8 -34 -6 -41 3 -8 1 -11 -4 -8 -6 3 -10 -1 -10 -10 0 -9 5 -13
11 -9 11 7 -19 -57 -31 -66 -15 -11 -31 -51 -24 -62 5 -8 2 -9 -10 -5 -14 6
-17 3 -12 -8 3 -9 2 -13 -3 -10 -5 3 -12 -4 -16 -15 -3 -11 -13 -20 -21 -20
-8 0 -12 -5 -9 -10 8 -13 -14 -42 -25 -35 -5 3 -22 -6 -38 -20 -16 -14 -35
-25 -40 -25 -6 0 -16 -8 -21 -17 -6 -10 -11 -13 -11 -5 0 10 -4 10 -19 0 -11
-7 -18 -15 -15 -19 2 -4 -5 -5 -16 -2 -12 3 -20 0 -20 -7 0 -8 -9 -10 -26 -6
-14 4 -23 3 -21 -1 3 -4 -23 -9 -58 -9 -50 -1 -62 1 -58 12 3 8 11 14 19 14 8
0 14 4 14 10 0 5 -6 7 -14 4 -8 -3 -17 -1 -20 4 -3 5 7 7 22 5 67 -10 98 -10
121 0 15 6 29 11 33 11 3 1 9 4 13 8 4 4 13 4 21 1 10 -4 12 0 7 13 -6 17 -5
17 10 5 14 -11 18 -11 23 2 3 9 15 19 26 23 12 3 31 17 43 30 12 13 28 24 34
24 7 0 9 5 6 10 -3 6 -2 10 2 10 5 0 14 14 21 32 6 17 15 29 18 25 10 -10 36
44 29 60 -2 8 0 11 5 8 11 -7 25 39 15 54 -3 6 -1 11 4 11 6 0 10 10 10 23 0
12 1 31 4 42 2 11 0 31 -6 45 -13 35 -15 62 -5 83 6 11 5 17 -4 17 -8 0 -9 3
-3 8 16 11 18 74 3 84 -10 6 -10 8 0 8 6 0 12 6 12 14 0 8 -6 17 -12 19 -7 3
-4 6 7 7 20 1 20 1 1 15 -19 14 -19 15 -1 15 17 0 17 1 -1 22 -10 12 -13 18
-5 13 10 -6 12 -2 6 15 -5 15 -2 25 6 31 11 7 10 9 -3 9 -10 0 -18 5 -18 11 0
5 5 7 10 4 6 -3 10 1 10 10 0 10 -5 13 -12 9 -8 -5 -8 -3 -2 7 10 16 14 110 4
104 -4 -2 -7 2 -7 10 0 8 3 12 6 10 4 -2 7 30 7 71 0 41 -4 74 -9 74 -5 0 -5
6 2 13 8 10 7 17 -2 27 -9 10 -9 11 1 6 10 -6 12 2 9 34 -6 60 -33 78 -110 75
-81 -3 -110 -27 -106 -87 1 -24 6 -51 11 -60 4 -9 4 -19 -1 -22 -5 -3 -8 -43
-7 -88 2 -46 -1 -91 -6 -100 -5 -12 -5 -18 2 -18 6 0 5 -8 -2 -20 -11 -17 -10
-22 1 -29 10 -6 10 -10 2 -16 -9 -5 -8 -14 4 -32 10 -14 13 -23 7 -19 -5 3
-12 -1 -15 -8 -3 -8 -1 -17 6 -20 8 -4 9 -8 1 -11 -7 -4 -8 -26 -2 -73 7 -46
6 -68 -1 -70 -17 -6 -13 -22 4 -22 12 0 13 -4 5 -19 -13 -26 -13 -78 1 -83 6
-2 1 -15 -11 -31 -16 -20 -17 -25 -6 -21 18 7 19 4 10 -20 -3 -9 -11 -13 -18
-10 -6 3 -2 -2 8 -10 17 -14 18 -16 3 -16 -11 0 -17 -8 -17 -25 0 -16 -6 -25
-16 -25 -11 0 -14 -6 -9 -22 5 -18 4 -20 -4 -8 -9 13 -11 13 -11 -2 0 -10 -6
-17 -12 -15 -7 1 -12 -6 -12 -15 1 -10 -2 -16 -6 -13 -5 3 -12 1 -15 -5 -5 -8
-11 -7 -21 1 -12 10 -13 8 -8 -7 4 -10 4 -16 0 -12 -5 4 -20 2 -34 -3 -17 -7
-29 -6 -36 1 -14 14 -29 13 -20 -2 4 -7 3 -8 -4 -4 -7 4 -12 14 -12 22 0 8 -5
14 -11 14 -5 0 -8 -4 -4 -9 3 -5 1 -12 -5 -16 -6 -4 -11 6 -11 22 -1 23 -3 24
-6 6 -4 -19 -7 -21 -29 -11 -15 7 -23 17 -20 25 3 8 2 12 -2 9 -5 -3 -14 4
-22 14 -8 10 -17 17 -21 14 -4 -2 -10 0 -14 6 -3 5 -2 10 3 10 6 0 8 8 5 19
-3 10 0 22 6 25 6 4 11 1 11 -7 0 -8 10 -17 23 -21 18 -5 20 -8 7 -16 -11 -7
-11 -10 -2 -10 7 0 10 -4 7 -10 -4 -6 1 -7 11 -3 14 5 16 2 12 -15 -4 -12 -1
-25 4 -29 7 -3 8 -1 4 5 -4 7 -3 12 3 12 6 0 8 8 4 18 -5 15 -4 14 9 -2 8 -10
20 -16 26 -12 7 4 12 2 12 -4 0 -7 7 -9 16 -6 8 3 12 2 9 -3 -3 -5 -1 -12 5
-16 5 -3 10 2 10 12 0 15 2 16 10 3 9 -14 15 -7 10 15 -1 6 4 5 11 -2 11 -11
37 -7 49 6 3 3 14 11 24 17 11 5 26 21 34 35 13 23 13 23 -2 5 -9 -11 -16 -16
-16 -10 1 13 26 45 32 39 2 -2 3 9 2 25 -1 17 1 28 5 25 10 -6 6 58 -4 75 -6
9 -4 11 5 5 10 -6 11 -4 4 6 -12 20 -12 51 0 68 9 12 8 13 -5 9 -13 -5 -15 -1
-11 20 5 24 6 25 14 7 8 -20 8 -20 4 0 -2 11 -7 29 -12 39 -6 15 -4 17 7 11
12 -8 12 -6 0 8 -9 11 -10 17 -2 17 6 0 11 5 11 11 0 5 -4 7 -10 4 -5 -3 -10
1 -10 9 0 9 4 16 8 16 10 0 9 30 -1 47 -4 6 -3 14 2 18 7 4 7 15 1 31 -13 32
-12 37 0 29 6 -3 10 1 10 9 0 11 -6 13 -17 9 -17 -7 -17 -6 0 11 9 9 17 25 17
34 0 13 -3 13 -16 -4 -14 -18 -15 -18 -4 4 6 13 9 29 7 37 -3 7 -1 17 5 23 8
8 7 16 -2 27 -10 12 -11 18 -2 24 7 4 8 12 2 21 -5 9 -5 19 2 27 8 11 7 12 -8
6 -17 -6 -17 -5 -5 10 8 10 11 20 9 23 -3 3 -2 20 2 39 5 21 3 38 -4 46 -8 9
-8 10 2 5 14 -8 17 10 2 19 -5 3 -10 14 -10 24 0 28 -31 33 -190 35 -80 1
-152 6 -159 11 -10 5 -12 4 -7 -3 4 -7 3 -12 -3 -12 -15 0 -26 23 -13 28 7 2
12 10 12 17 0 9 11 12 35 9 19 -1 37 1 40 7 4 5 8 9 11 9 3 0 2 -4 -1 -10z
m-291 -992 c-3 -4 0 -17 7 -29 7 -15 8 -19 0 -15 -7 5 -9 1 -5 -8 3 -9 10 -13
15 -10 5 3 6 -2 3 -11 -9 -22 16 -51 28 -33 6 8 7 5 3 -11 -5 -17 -4 -21 5
-16 9 6 9 3 1 -12 -10 -20 -6 -33 11 -33 5 0 6 6 3 13 -7 12 11 -10 41 -50 9
-13 24 -23 33 -23 14 -1 14 -2 -2 -11 -20 -12 -74 10 -70 29 2 7 -2 12 -8 12
-5 0 -7 5 -4 10 3 6 -1 13 -10 16 -9 4 -14 12 -11 20 3 8 -2 11 -16 9 -19 -4
-20 -3 -4 14 13 14 14 21 5 27 -8 4 -10 3 -5 -4 5 -8 -1 -12 -16 -12 -16 0
-19 3 -10 9 10 6 8 10 -9 14 -18 5 -20 9 -11 20 10 11 9 17 -3 27 -16 13 -21
35 -6 26 4 -3 6 6 3 19 -2 14 -8 25 -13 25 -5 0 -9 7 -9 15 0 12 5 11 29 -3
16 -9 27 -20 25 -24z m198 -274 c19 -12 5 -25 -24 -22 -33 3 -51 15 -42 29 4
8 50 2 66 -7z m74 -40 c7 3 16 1 19 -3 3 -5 18 -8 33 -7 39 3 55 -16 37 -40
-14 -18 -14 -18 -15 6 0 19 -2 22 -9 10 -6 -8 -7 -19 -4 -25 4 -5 -4 -1 -17
10 -23 19 -23 19 -16 1 6 -19 6 -19 -12 -3 -21 19 -37 23 -26 5 4 -7 3 -8 -5
-4 -6 4 -9 11 -6 16 3 5 -13 15 -35 21 l-41 13 28 11 c22 9 31 9 42 -2 7 -8
20 -12 27 -9z"/>
<path d="M2106 2109 c-10 -12 -16 -30 -13 -40 3 -11 1 -17 -4 -13 -5 3 -9 -6
-9 -20 0 -14 4 -26 8 -26 4 0 4 -39 -1 -87 -8 -87 -7 -119 8 -158 5 -16 5 -17
-4 -5 -9 12 -11 10 -11 -13 0 -19 4 -26 12 -21 7 5 8 3 3 -6 -11 -19 -14 -109
-3 -116 4 -3 8 -10 8 -15 0 -6 -4 -8 -9 -4 -5 3 -12 1 -16 -5 -3 -5 -1 -10 4
-10 6 0 11 -10 11 -22 0 -19 -2 -20 -10 -8 -5 8 -10 10 -10 4 0 -6 9 -19 21
-30 19 -17 40 -19 213 -21 105 -1 207 -4 226 -7 53 -8 81 18 86 80 4 62 -12
124 -32 124 -8 0 -13 4 -9 9 3 6 -4 8 -17 5 -13 -3 -36 -5 -52 -5 -16 0 -38
-5 -49 -11 -14 -7 -17 -7 -13 0 4 7 -14 11 -53 11 -77 -1 -96 6 -99 33 -4 33
-4 40 2 68 3 14 0 27 -7 32 -8 5 -8 8 -1 8 6 0 10 11 9 24 -2 14 4 33 12 43 8
10 11 12 7 4 -5 -10 -3 -12 6 -6 7 5 163 8 347 7 304 0 333 1 333 16 0 16 -31
17 -367 15 l-368 -2 0 -133 0 -133 155 -1 155 -2 3 -74 3 -74 -233 3 c-127 2
-232 5 -232 6 -1 1 0 128 2 282 l3 280 440 -3 c416 -3 439 -2 439 15 0 16 -10
18 -117 15 -257 -5 -704 -4 -710 2 -13 13 -49 5 -67 -15z"/>
<path d="M2130 1812 l0 -268 215 -1 215 -1 0 60 0 59 -147 -1 c-82 -1 -154 -1
-160 -1 -10 1 -13 39 -13 156 l0 155 375 0 375 0 0 54 0 54 -430 1 -430 2 0
-269z m315 239 c414 -1 485 -4 496 -23 6 -10 6 -19 0 -23 -5 -3 -162 -6 -348
-6 -271 -1 -342 -4 -360 -15 -20 -13 -22 -21 -21 -114 1 -55 -2 -103 -5 -107
-12 -11 -7 -24 6 -17 9 6 9 4 -1 -8 -9 -11 -10 -23 -2 -42 13 -35 13 -39 -2
-30 -7 4 -3 -3 10 -16 27 -25 78 -33 97 -13 11 10 14 10 18 0 3 -9 8 -9 20 2
10 7 17 9 17 4 0 -5 32 -10 71 -11 77 -2 89 -6 89 -27 0 -20 -23 -24 -147 -27
-61 -1 -109 -6 -107 -10 3 -4 -5 -4 -18 0 -13 5 -38 8 -55 8 -31 -1 -33 1 -34
34 -1 19 -1 41 0 49 2 7 -2 10 -9 6 -9 -5 -10 -2 -3 11 10 23 10 85 0 102 -5
6 -4 12 0 12 10 0 9 192 -1 208 -4 7 -2 12 4 12 7 0 9 8 5 20 -5 15 -3 18 8
14 8 -3 18 0 22 5 3 6 11 9 16 6 5 -4 9 0 9 7 0 9 2 10 8 1 5 -8 68 -12 217
-12z"/>
<path d="M2966 1004 c-9 -25 -7 -64 4 -64 6 0 10 18 10 40 0 43 -4 50 -14 24z"/>
<path d="M1880 818 c0 -4 -7 -5 -16 -1 -10 4 -17 -1 -21 -15 -3 -13 -10 -19
-19 -15 -11 4 -14 -1 -12 -18 2 -13 7 -29 11 -36 4 -6 3 -14 -2 -17 -24 -15
-1 -86 28 -86 6 0 7 -7 4 -17 -4 -10 -2 -14 4 -10 6 4 13 1 16 -5 3 -9 10 -7
22 7 9 11 13 14 10 7 -6 -11 3 -13 39 -11 25 2 48 0 52 -4 4 -3 14 -3 23 1 20
10 84 8 101 -3 9 -5 11 -4 6 3 -5 8 1 12 16 12 18 0 20 -2 8 -10 -8 -5 -11
-10 -6 -10 5 0 18 8 29 17 13 11 17 12 12 4 -6 -10 -4 -13 7 -9 8 4 21 2 28
-2 7 -5 24 -4 36 0 13 5 26 5 29 1 6 -11 47 -2 57 13 5 7 8 7 8 1 0 -7 108
-11 325 -12 310 -1 325 0 325 18 0 18 -21 18 -562 18 -310 1 -569 1 -575 1
-13 0 -19 103 -8 132 4 11 108 13 575 11 l570 -1 0 22 c0 22 -4 23 -81 25 -50
1 -79 -2 -75 -8 4 -5 -6 -5 -23 2 -22 8 -36 8 -56 -1 -14 -7 -24 -9 -21 -4 2
4 -15 9 -40 10 -25 1 -44 -3 -44 -9 0 -6 -6 -7 -12 -2 -23 14 -50 14 -42 1 6
-10 4 -10 -7 -2 -16 13 -47 12 -68 -1 -9 -5 -12 -4 -8 2 8 13 -91 15 -114 2
-11 -5 -20 -5 -23 0 -8 13 -286 9 -286 -4 0 -7 -3 -7 -8 0 -8 11 -212 14 -212
3z"/>
<path d="M2967 753 c-9 -14 -5 -83 4 -83 5 0 9 20 9 45 0 43 -4 53 -13 38z"/>
</g>
</svg>
